# xmcd
#
# Track frame offsets: 
#        151
#        2511
#        16716
#        30814
#        45643
#        56843
#        68664
#        80783
#        97057
#        111167
#        124543
#        141154
#        153700
#        166348
#        180027
#        195354
#        207654
#        223181
#
# Disc length: 3016 seconds
#
# Revision: 0
# Processed by: cddbd v1.5.1PL0 Copyright (c) Steve Scherf et al.
# Submitted via: ExactAudioCopy v0.95b3
#
DISCID=ec0bc612
DTITLE=Waylon Jennings - Grand Ole Opry - Nashville, TN ( 1978-08-12)
DYEAR=1978
DGENRE=Country
TTITLE0=Intro
TTITLE1=Are You Ready For The Country
TTITLE2=Lonesome, Ornery and Mean
TTITLE3=Long Time Gone
TTITLE4=Amanda
TTITLE5=A Long Time Ago
TTITLE6=Jack Of Diamonds
TTITLE7=Tonight The Bottle Let Me Down
TTITLE8=This Time
TTITLE9=You Asked Me To
TTITLE10=I've Always Been Crazy
TTITLE11=Don't You Think This Outlaw Bit's Done Got Out Of Hand?
TTITLE12=Good Hearted Woman
TTITLE13=Mamas Don't Let Your Babies Grow Up To Be Cowboys
TTITLE14=Luckenbach, Texas
TTITLE15=Honky Tonk Heroes
TTITLE16=Are You Sure Hank Done It This Way?
TTITLE17=Outro
EXTD=
EXTT0=
EXTT1=
EXTT2=
EXTT3=
EXTT4=
EXTT5=
EXTT6=
EXTT7=
EXTT8=
EXTT9=
EXTT10=
EXTT11=
EXTT12=
EXTT13=
EXTT14=
EXTT15=
EXTT16=
EXTT17=
PLAYORDER=
